# xmcd
#
# Track frame offsets:
#	150
#	22557
#	40889
#	65386
#	84582
#	112603
#	132669
#	150025
#	165591
#	188889
#	205514
#
# Disc length: 2966 seconds
#
# Revision: 24
# Processed by: cddbd v1.5.2PL0 Copyright (c) Steve Scherf et al.
# Submitted via: Jack! The Knife 20 Magnifico
#
DISCID=750b940b
DTITLE=Yngwie Malmsteen - Eclipse
DYEAR=1990
DGENRE=Metal
TTITLE0=Making Love
TTITLE1=Bedroom Eyes
TTITLE2=Save Our Love
TTITLE3=Motherless Child
TTITLE4=Devil In Disguise
TTITLE5=Judas
TTITLE6=What Do You Want
TTITLE7=Demon Driver
TTITLE8=Faultline
TTITLE9=See You In Hell (Don't Be Late)
TTITLE10=Eclipse
EXTD=Yngwie Malmsteen
EXTT0=Yngwie Malmsteen
EXTT1=Yngwie Malmsteen
EXTT2=Yngwie Malmsteen
EXTT3=Yngwie Malmsteen
EXTT4=Yngwie Malmsteen
EXTT5=Yngwie Malmsteen
EXTT6=Yngwie Malmsteen
EXTT7=Yngwie Malmsteen
EXTT8=Yngwie Malmsteen
EXTT9=Yngwie Malmsteen
EXTT10=Yngwie Malmsteen
PLAYORDER=
